<?xml version="1.0" encoding="UTF-8"?>
<!DOCTYPE svg PUBLIC "-//W3C//DTD SVG 1.1//EN" "http://www.w3.org/Graphics/SVG/1.1/DTD/svg11.dtd">
<svg xmlns="http://www.w3.org/2000/svg" version="1.1" width="186px" height="204px" style="shape-rendering:geometricPrecision; text-rendering:geometricPrecision; image-rendering:optimizeQuality; fill-rule:evenodd; clip-rule:evenodd" xmlns:xlink="http://www.w3.org/1999/xlink">
<g><path style="opacity:1" fill="#000000" d="M 109.5,12.5 C 110.833,13.1667 110.833,13.1667 109.5,12.5 Z"/></g>
<g><path style="opacity:1" fill="#000000" d="M 92.5,13.5 C 93.8333,14.1667 93.8333,14.1667 92.5,13.5 Z"/></g>
<g><path style="opacity:1" fill="#000000" d="M 116.5,14.5 C 117.833,15.1667 117.833,15.1667 116.5,14.5 Z"/></g>
<g><path style="opacity:1" fill="#0481f4" d="M 98.5,14.5 C 101.85,14.335 105.183,14.5017 108.5,15C 112.855,16.8458 117.188,18.6791 121.5,20.5C 122.833,21.5 124.167,22.5 125.5,23.5C 125.427,25.0269 126.094,26.0269 127.5,26.5C 127.427,28.0269 128.094,29.0269 129.5,29.5C 129.427,31.0269 130.094,32.0269 131.5,32.5C 131.328,33.4916 131.662,34.1583 132.5,34.5C 132.541,36.7453 133.375,37.4119 135,36.5C 134.812,40.127 136.312,43.127 139.5,45.5C 139.427,47.0269 140.094,48.0269 141.5,48.5C 142.383,51.7043 144.05,54.3709 146.5,56.5C 146.328,57.4916 146.662,58.1583 147.5,58.5C 148.11,60.4341 149.11,62.1007 150.5,63.5C 150.427,65.0269 151.094,66.0269 152.5,66.5C 152.427,68.0269 153.094,69.0269 154.5,69.5C 154.5,70.1667 154.5,70.8333 154.5,71.5C 154.955,75.7417 156.955,79.0751 160.5,81.5C 161.167,81.8333 161.833,82.1667 162.5,82.5C 162.427,84.0269 163.094,85.0269 164.5,85.5C 164.427,87.0269 165.094,88.0269 166.5,88.5C 166.66,90.153 167.326,91.4863 168.5,92.5C 168.738,94.4044 169.738,95.7377 171.5,96.5C 171.328,97.4916 171.662,98.1583 172.5,98.5C 172.328,99.4916 172.662,100.158 173.5,100.5C 173.5,101.5 173.5,102.5 173.5,103.5C 173.662,105.527 173.495,107.527 173,109.5C 170.555,112.075 169.055,115.075 168.5,118.5C 164.059,120.107 159.392,120.774 154.5,120.5C 153.833,120.5 153.167,120.5 152.5,120.5C 151.833,119.167 150.833,118.167 149.5,117.5C 149.167,116.5 148.5,115.833 147.5,115.5C 147.672,114.508 147.338,113.842 146.5,113.5C 146.573,111.973 145.906,110.973 144.5,110.5C 144.573,108.973 143.906,107.973 142.5,107.5C 142.672,106.508 142.338,105.842 141.5,105.5C 139.316,101.119 136.65,97.1189 133.5,93.5C 132.758,91.0202 131.758,88.6869 130.5,86.5C 130.162,84.146 129.662,81.8127 129,79.5C 128.014,80.1712 126.847,80.1712 125.5,79.5C 125.5,78.8333 125.167,78.5 124.5,78.5C 124.573,76.9731 123.906,75.9731 122.5,75.5C 122.672,74.5084 122.338,73.8417 121.5,73.5C 120.89,72.609 120.557,71.609 120.5,70.5C 119.62,67.7378 118.454,65.0711 117,62.5C 116.329,61.7476 115.496,61.4142 114.5,61.5C 113.833,60.8333 113.167,60.1667 112.5,59.5C 112.573,57.9731 111.906,56.9731 110.5,56.5C 110.5,55.8333 110.5,55.1667 110.5,54.5C 110.13,51.733 108.796,49.733 106.5,48.5C 106.167,48.5 105.833,48.5 105.5,48.5C 105.672,47.5084 105.338,46.8417 104.5,46.5C 104.217,45.7109 103.717,45.0442 103,44.5C 101.348,45.3994 99.8484,46.3994 98.5,47.5C 97.8333,47.5 97.5,47.8333 97.5,48.5C 96.5084,48.3284 95.8417,48.6618 95.5,49.5C 94.5084,49.3284 93.8417,49.6618 93.5,50.5C 92.8333,50.5 92.5,50.8333 92.5,51.5C 91.5084,51.3284 90.8417,51.6618 90.5,52.5C 89.8333,52.5 89.5,52.8333 89.5,53.5C 88.5084,53.3284 87.8417,53.6618 87.5,54.5C 86.8333,54.5 86.5,54.8333 86.5,55.5C 85.5084,55.3284 84.8417,55.6618 84.5,56.5C 83.5084,56.3284 82.8417,56.6618 82.5,57.5C 81.8333,57.5 81.5,57.8333 81.5,58.5C 80.5084,58.3284 79.8417,58.6618 79.5,59.5C 78.8333,59.5 78.5,59.8333 78.5,60.5C 77.5084,60.3284 76.8417,60.6618 76.5,61.5C 75.391,61.5569 74.391,61.8902 73.5,62.5C 70.9857,62.7539 68.6524,63.5873 66.5,65C 65.7476,65.6708 65.4142,66.5041 65.5,67.5C 65.5,67.8333 65.5,68.1667 65.5,68.5C 63.9731,68.427 62.9731,69.0937 62.5,70.5C 61.5084,70.3284 60.8417,70.6618 60.5,71.5C 59.8333,71.5 59.5,71.8333 59.5,72.5C 58.5084,72.3284 57.8417,72.6618 57.5,73.5C 56.391,73.5569 55.391,73.8902 54.5,74.5C 53.8333,74.5 53.5,74.8333 53.5,75.5C 52.8333,75.5 52.5,75.8333 52.5,76.5C 51.8333,76.5 51.5,76.8333 51.5,77.5C 49.847,77.6596 48.5137,78.3263 47.5,79.5C 46.2905,79.9321 45.2905,80.5987 44.5,81.5C 43.8333,81.5 43.1667,81.5 42.5,81.5C 40.6458,80.759 38.9791,79.759 37.5,78.5C 36.0664,75.9528 34.3998,73.6195 32.5,71.5C 32.5,70.5 32.5,69.5 32.5,68.5C 31.9084,65.8728 31.5751,63.2062 31.5,60.5C 32.0661,56.2033 34.0661,52.7033 37.5,50C 44.399,46.0587 51.0657,41.892 57.5,37.5C 58.1667,37.5 58.5,37.1667 58.5,36.5C 61.0041,35.4161 63.3374,34.0828 65.5,32.5C 68.2028,30.8193 70.8695,29.1526 73.5,27.5C 76.2028,25.8193 78.8695,24.1526 81.5,22.5C 82.1667,22.5 82.5,22.1667 82.5,21.5C 85.7777,20.1911 88.7777,18.3578 91.5,16C 93.74,15.023 96.0733,14.523 98.5,14.5 Z M 104.5,46.5 C 105.338,46.8417 105.672,47.5084 105.5,48.5C 105.19,49.7383 104.69,49.7383 104,48.5C 103.308,47.5632 103.475,46.8966 104.5,46.5 Z M 114.5,62.5 C 115.338,62.8417 115.672,63.5084 115.5,64.5C 115.5,64.8333 115.5,65.1667 115.5,65.5C 113.618,64.779 113.285,63.779 114.5,62.5 Z M 115.5,65.5 C 115.833,65.5 116.167,65.5 116.5,65.5C 117.338,65.8417 117.672,66.5084 117.5,67.5C 117.565,67.9382 117.399,68.2716 117,68.5C 115.961,67.7562 115.461,66.7562 115.5,65.5 Z M 57.5,73.5 C 58.1667,73.5 58.8333,73.5 59.5,73.5C 58.7095,74.4013 57.7095,75.0679 56.5,75.5C 55.5084,75.6716 54.8417,75.3382 54.5,74.5C 55.391,73.8902 56.391,73.5569 57.5,73.5 Z M 123.5,78.5 C 123.833,78.5 124.167,78.5 124.5,78.5C 125.167,78.5 125.5,78.8333 125.5,79.5C 125.5,79.8333 125.5,80.1667 125.5,80.5C 125.565,80.9382 125.399,81.2716 125,81.5C 123.961,80.7562 123.461,79.7562 123.5,78.5 Z"/></g>
<g><path style="opacity:1" fill="#1060a2" d="M 98.5,14.5 C 101.962,13.5184 105.629,13.185 109.5,13.5C 114.081,14.7919 118.081,17.1253 121.5,20.5C 117.188,18.6791 112.855,16.8458 108.5,15C 105.183,14.5017 101.85,14.335 98.5,14.5 Z"/></g>
<g><path style="opacity:1" fill="#000000" d="M 119.5,16.5 C 118.833,15.1667 118.833,15.1667 119.5,16.5 Z"/></g>
<g><path style="opacity:1" fill="#000000" d="M 119.5,16.5 C 120.833,17.1667 120.833,17.1667 119.5,16.5 Z"/></g>
<g><path style="opacity:1" fill="#000000" d="M 82.5,21.5 C 81.8333,21.5 81.5,21.8333 81.5,22.5C 79.0248,22.2533 79.0248,21.5866 81.5,20.5C 82.1067,20.6236 82.44,20.9569 82.5,21.5 Z"/></g>
<g><path style="opacity:1" fill="#000000" d="M 126.5,23.5 C 125.833,22.1667 125.833,22.1667 126.5,23.5 Z"/></g>
<g><path style="opacity:1" fill="#000000" d="M 126.5,23.5 C 127.833,24.1667 127.833,24.1667 126.5,23.5 Z"/></g>
<g><path style="opacity:1" fill="#000000" d="M 127.5,25.5 C 128.833,26.1667 128.833,26.1667 127.5,25.5 Z"/></g>
<g><path style="opacity:1" fill="#000000" d="M 73.5,27.5 C 72.8333,26.1667 72.8333,26.1667 73.5,27.5 Z"/></g>
<g><path style="opacity:1" fill="#000000" d="M 129.5,28.5 C 130.833,29.1667 130.833,29.1667 129.5,28.5 Z"/></g>
<g><path style="opacity:1" fill="#000000" d="M 65.5,32.5 C 64.475,32.1034 64.3083,31.4368 65,30.5C 65.4643,31.0944 65.631,31.7611 65.5,32.5 Z"/></g>
<g><path style="opacity:1" fill="#000000" d="M 131.5,31.5 C 132.833,32.1667 132.833,32.1667 131.5,31.5 Z"/></g>
<g><path style="opacity:1" fill="#000000" d="M 133.5,34.5 C 132.833,33.1667 132.833,33.1667 133.5,34.5 Z"/></g>
<g><path style="opacity:1" fill="#000000" d="M 58.5,34.5 C 59.8333,35.1667 59.8333,35.1667 58.5,34.5 Z"/></g>
<g><path style="opacity:1" fill="#000000" d="M 133.5,34.5 C 134.833,35.1667 134.833,35.1667 133.5,34.5 Z"/></g>
<g><path style="opacity:1" fill="#000000" d="M 58.5,35.5 C 58.5,35.8333 58.5,36.1667 58.5,36.5C 57.8333,36.5 57.5,36.8333 57.5,37.5C 56.2426,36.3774 56.5759,35.7107 58.5,35.5 Z"/></g>
<g><path style="opacity:1" fill="#000000" d="M 50.5,39.5 C 51.8333,40.1667 51.8333,40.1667 50.5,39.5 Z"/></g>
<g><path style="opacity:1" fill="#000000" d="M 136.5,39.5 C 137.833,40.1667 137.833,40.1667 136.5,39.5 Z"/></g>
<g><path style="opacity:1" fill="#000000" d="M 140.5,45.5 C 139.833,44.1667 139.833,44.1667 140.5,45.5 Z"/></g>
<g><path style="opacity:1" fill="#000000" d="M 140.5,45.5 C 141.833,46.1667 141.833,46.1667 140.5,45.5 Z"/></g>
<g><path style="opacity:1" fill="#000000" d="M 101.5,46.5 C 102.833,47.1667 102.833,47.1667 101.5,46.5 Z"/></g>
<g><path style="opacity:1" fill="#000000" d="M 98.5,48.5 C 98.5,48.1667 98.5,47.8333 98.5,47.5C 101.167,47.8333 101.167,48.1667 98.5,48.5 Z"/></g>
<g><path style="opacity:1" fill="#000000" d="M 141.5,47.5 C 142.833,48.1667 142.833,48.1667 141.5,47.5 Z"/></g>
<g><path style="opacity:1" fill="#000000" d="M 97.5,48.5 C 97.8333,48.5 98.1667,48.5 98.5,48.5C 98.3147,49.1701 97.9813,49.1701 97.5,48.5 Z"/></g>
<g><path style="opacity:1" fill="#1964a0" d="M 106.5,48.5 C 108.796,49.733 110.13,51.733 110.5,54.5C 109.833,54.1667 109.167,53.8333 108.5,53.5C 108.672,52.5084 108.338,51.8417 107.5,51.5C 107.443,50.391 107.11,49.391 106.5,48.5 Z"/></g>
<g><path style="opacity:1" fill="#000000" d="M 95.5,49.5 C 96.1667,49.5 96.8333,49.5 97.5,49.5C 96.8333,50.8333 96.1667,50.8333 95.5,49.5 Z"/></g>
<g><path style="opacity:1" fill="#000000" d="M 93.5,50.5 C 94.8333,51.1667 94.8333,51.1667 93.5,50.5 Z"/></g>
<g><path style="opacity:1" fill="#000000" d="M 106.5,51.5 C 105.833,50.1667 105.833,50.1667 106.5,51.5 Z"/></g>
<g><path style="opacity:1" fill="#000000" d="M 92.5,51.5 C 92.8333,51.5 93.1667,51.5 93.5,51.5C 93.3147,52.1701 92.9813,52.1701 92.5,51.5 Z"/></g>
<g><path style="opacity:1" fill="#000000" d="M 106.5,51.5 C 106.833,51.5 107.167,51.5 107.5,51.5C 107.315,52.1701 106.981,52.1701 106.5,51.5 Z"/></g>
<g><path style="opacity:1" fill="#000000" d="M 90.5,52.5 C 91.7574,53.6226 91.4241,54.2893 89.5,54.5C 89.5,54.1667 89.5,53.8333 89.5,53.5C 90.1667,53.5 90.5,53.1667 90.5,52.5 Z"/></g>
<g><path style="opacity:1" fill="#000000" d="M 108.5,53.5 C 107.833,54.1667 107.833,54.1667 108.5,53.5 Z"/></g>
<g><path style="opacity:1" fill="#000000" d="M 87.5,55.5 C 87.5,55.1667 87.5,54.8333 87.5,54.5C 88.1667,54.5 88.8333,54.5 89.5,54.5C 89.1583,55.3382 88.4916,55.6716 87.5,55.5 Z"/></g>
<g><path style="opacity:1" fill="#000000" d="M 30.5,55.5 C 31.8333,56.1667 31.8333,56.1667 30.5,55.5 Z"/></g>
<g><path style="opacity:1" fill="#000000" d="M 86.5,55.5 C 86.8333,55.5 87.1667,55.5 87.5,55.5C 87.3147,56.1701 86.9813,56.1701 86.5,55.5 Z"/></g>
<g><path style="opacity:1" fill="#000000" d="M 109.5,56.5 C 108.833,55.1667 108.833,55.1667 109.5,56.5 Z"/></g>
<g><path style="opacity:1" fill="#000000" d="M 146.5,55.5 C 147.833,56.1667 147.833,56.1667 146.5,55.5 Z"/></g>
<g><path style="opacity:1" fill="#000000" d="M 84.5,56.5 C 85.8333,57.1667 85.8333,57.1667 84.5,56.5 Z"/></g>
<g><path style="opacity:1" fill="#000000" d="M 109.5,56.5 C 109.833,56.5 110.167,56.5 110.5,56.5C 110.315,57.1701 109.981,57.1701 109.5,56.5 Z"/></g>
<g><path style="opacity:1" fill="#000000" d="M 82.5,58.5 C 82.5,58.1667 82.5,57.8333 82.5,57.5C 83.1667,57.5 83.8333,57.5 84.5,57.5C 84.1583,58.3382 83.4916,58.6716 82.5,58.5 Z"/></g>
<g><path style="opacity:1" fill="#000000" d="M 148.5,58.5 C 147.833,57.1667 147.833,57.1667 148.5,58.5 Z"/></g>
<g><path style="opacity:1" fill="#000000" d="M 81.5,58.5 C 81.8333,58.5 82.1667,58.5 82.5,58.5C 82.3147,59.1701 81.9813,59.1701 81.5,58.5 Z"/></g>
<g><path style="opacity:1" fill="#000000" d="M 111.5,59.5 C 110.833,58.1667 110.833,58.1667 111.5,59.5 Z"/></g>
<g><path style="opacity:1" fill="#000000" d="M 148.5,58.5 C 149.833,59.1667 149.833,59.1667 148.5,58.5 Z"/></g>
<g><path style="opacity:1" fill="#000000" d="M 79.5,60.5 C 79.5,60.1667 79.5,59.8333 79.5,59.5C 80.1667,59.5 80.8333,59.5 81.5,59.5C 81.1583,60.3382 80.4916,60.6716 79.5,60.5 Z"/></g>
<g><path style="opacity:1" fill="#000000" d="M 111.5,59.5 C 111.833,59.5 112.167,59.5 112.5,59.5C 112.315,60.1701 111.981,60.1701 111.5,59.5 Z"/></g>
<g><path style="opacity:1" fill="#000000" d="M 78.5,60.5 C 78.8333,60.5 79.1667,60.5 79.5,60.5C 79.3147,61.1701 78.9813,61.1701 78.5,60.5 Z"/></g>
<g><path style="opacity:1" fill="#000000" d="M 76.5,62.5 C 76.5,62.1667 76.5,61.8333 76.5,61.5C 77.1667,61.5 77.8333,61.5 78.5,61.5C 78.1583,62.3382 77.4916,62.6716 76.5,62.5 Z"/></g>
<g><path style="opacity:1" fill="#1d70ba" d="M 73.5,62.5 C 73.5,62.8333 73.5,63.1667 73.5,63.5C 72.5084,63.3284 71.8417,63.6618 71.5,64.5C 70.8333,64.5 70.5,64.8333 70.5,65.5C 69.5084,65.3284 68.8417,65.6618 68.5,66.5C 67.8333,66.5 67.5,66.8333 67.5,67.5C 66.8333,67.5 66.1667,67.5 65.5,67.5C 65.4142,66.5041 65.7476,65.6708 66.5,65C 68.6524,63.5873 70.9857,62.7539 73.5,62.5 Z"/></g>
<g><path style="opacity:1" fill="#000000" d="M 76.5,62.5 C 75.8333,63.1667 75.8333,63.1667 76.5,62.5 Z"/></g>
<g><path style="opacity:1" fill="#000000" d="M 151.5,63.5 C 150.833,62.1667 150.833,62.1667 151.5,63.5 Z"/></g>
<g><path style="opacity:1" fill="#143d63" d="M 31.5,60.5 C 31.5751,63.2062 31.9084,65.8728 32.5,68.5C 29.5669,66.4741 29.2336,63.8075 31.5,60.5 Z"/></g>
<g><path style="opacity:1" fill="#000000" d="M 73.5,63.5 C 74.8333,64.1667 74.8333,64.1667 73.5,63.5 Z"/></g>
<g><path style="opacity:1" fill="#1a67aa" d="M 114.5,62.5 C 114.5,62.1667 114.5,61.8333 114.5,61.5C 115.496,61.4142 116.329,61.7476 117,62.5C 118.454,65.0711 119.62,67.7378 120.5,70.5C 119.833,70.1667 119.167,69.8333 118.5,69.5C 118.672,68.5084 118.338,67.8417 117.5,67.5C 117.672,66.5084 117.338,65.8417 116.5,65.5C 116.5,64.8333 116.167,64.5 115.5,64.5C 115.672,63.5084 115.338,62.8417 114.5,62.5 Z"/></g>
<g><path style="opacity:1" fill="#000000" d="M 151.5,63.5 C 152.833,64.1667 152.833,64.1667 151.5,63.5 Z"/></g>
<g><path style="opacity:1" fill="#000000" d="M 71.5,65.5 C 71.5,65.1667 71.5,64.8333 71.5,64.5C 72.1667,64.5 72.8333,64.5 73.5,64.5C 73.1583,65.3382 72.4916,65.6716 71.5,65.5 Z"/></g>
<g><path style="opacity:1" fill="#000000" d="M 70.5,65.5 C 70.8333,65.5 71.1667,65.5 71.5,65.5C 71.3147,66.1701 70.9813,66.1701 70.5,65.5 Z"/></g>
<g><path style="opacity:1" fill="#000000" d="M 152.5,65.5 C 153.833,66.1667 153.833,66.1667 152.5,65.5 Z"/></g>
<g><path style="opacity:1" fill="#000000" d="M 68.5,67.5 C 68.5,67.1667 68.5,66.8333 68.5,66.5C 69.1667,66.5 69.8333,66.5 70.5,66.5C 70.1583,67.3382 69.4916,67.6716 68.5,67.5 Z"/></g>
<g><path style="opacity:1" fill="#000000" d="M 67.5,67.5 C 67.8333,67.5 68.1667,67.5 68.5,67.5C 68.3147,68.1701 67.9813,68.1701 67.5,67.5 Z"/></g>
<g><path style="opacity:1" fill="#000000" d="M 65.5,69.5 C 65.5,69.1667 65.5,68.8333 65.5,68.5C 66.1667,68.5 66.8333,68.5 67.5,68.5C 67.1583,69.3382 66.4916,69.6716 65.5,69.5 Z"/></g>
<g><path style="opacity:1" fill="#000000" d="M 154.5,68.5 C 155.833,69.1667 155.833,69.1667 154.5,68.5 Z"/></g>
<g><path style="opacity:1" fill="#000000" d="M 30.5,69.5 C 31.8333,70.1667 31.8333,70.1667 30.5,69.5 Z"/></g>
<g><path style="opacity:1" fill="#000000" d="M 65.5,69.5 C 64.8333,70.1667 64.8333,70.1667 65.5,69.5 Z"/></g>
<g><path style="opacity:1" fill="#000000" d="M 118.5,69.5 C 117.833,70.1667 117.833,70.1667 118.5,69.5 Z"/></g>
<g><path style="opacity:1" fill="#000000" d="M 62.5,70.5 C 63.8333,71.1667 63.8333,71.1667 62.5,70.5 Z"/></g>
<g><path style="opacity:1" fill="#000000" d="M 32.5,71.5 C 31.8333,72.1667 31.8333,72.1667 32.5,71.5 Z"/></g>
<g><path style="opacity:1" fill="#000000" d="M 60.5,72.5 C 60.5,72.1667 60.5,71.8333 60.5,71.5C 61.1667,71.5 61.8333,71.5 62.5,71.5C 62.1583,72.3382 61.4916,72.6716 60.5,72.5 Z"/></g>
<g><path style="opacity:1" fill="#000000" d="M 156.5,71.5 C 157.833,72.1667 157.833,72.1667 156.5,71.5 Z"/></g>
<g><path style="opacity:1" fill="#000000" d="M 59.5,72.5 C 59.8333,72.5 60.1667,72.5 60.5,72.5C 60.3147,73.1701 59.9813,73.1701 59.5,72.5 Z"/></g>
<g><path style="opacity:1" fill="#000000" d="M 121.5,73.5 C 120.833,74.1667 120.833,74.1667 121.5,73.5 Z"/></g>
<g><path style="opacity:1" fill="#000000" d="M 157.5,73.5 C 158.833,74.1667 158.833,74.1667 157.5,73.5 Z"/></g>
<g><path style="opacity:1" fill="#050710" d="M 54.5,74.5 C 54.8417,75.3382 55.5084,75.6716 56.5,75.5C 55.4863,76.6737 54.153,77.3404 52.5,77.5C 52.5,77.1667 52.5,76.8333 52.5,76.5C 53.1667,76.5 53.5,76.1667 53.5,75.5C 53.5,74.8333 53.8333,74.5 54.5,74.5 Z"/></g>
<g><path style="opacity:1" fill="#000000" d="M 122.5,75.5 C 121.833,76.1667 121.833,76.1667 122.5,75.5 Z"/></g>
<g><path style="opacity:1" fill="#000000" d="M 160.5,77.5 C 159.833,76.1667 159.833,76.1667 160.5,77.5 Z"/></g>
<g><path style="opacity:1" fill="#000000" d="M 51.5,77.5 C 51.8333,77.5 52.1667,77.5 52.5,77.5C 52.3147,78.1701 51.9813,78.1701 51.5,77.5 Z"/></g>
<g><path style="opacity:1" fill="#000000" d="M 123.5,78.5 C 122.833,77.1667 122.833,77.1667 123.5,78.5 Z"/></g>
<g><path style="opacity:1" fill="#000000" d="M 160.5,77.5 C 161.833,78.1667 161.833,78.1667 160.5,77.5 Z"/></g>
<g><path style="opacity:1" fill="#000000" d="M 36.5,79.5 C 35.8333,78.1667 35.8333,78.1667 36.5,79.5 Z"/></g>
<g><path style="opacity:1" fill="#276298" d="M 37.5,79.5 C 37.5,79.1667 37.5,78.8333 37.5,78.5C 38.9791,79.759 40.6458,80.759 42.5,81.5C 42.5,81.8333 42.5,82.1667 42.5,82.5C 41.5,83.8333 40.5,83.8333 39.5,82.5C 39.0679,81.2905 38.4013,80.2905 37.5,79.5 Z"/></g>
<g><path style="opacity:1" fill="#000000" d="M 51.5,78.5 C 50.8333,79.1667 50.8333,79.1667 51.5,78.5 Z"/></g>
<g><path style="opacity:1" fill="#000000" d="M 36.5,79.5 C 36.8333,79.5 37.1667,79.5 37.5,79.5C 37.3147,80.1701 36.9813,80.1701 36.5,79.5 Z"/></g>
<g><path style="opacity:1" fill="#000000" d="M 47.5,79.5 C 48.2389,79.369 48.9056,79.5357 49.5,80C 48.5632,80.6917 47.8966,80.525 47.5,79.5 Z"/></g>
<g><path style="opacity:1" fill="#196bb3" d="M 154.5,71.5 C 155.167,71.8333 155.833,72.1667 156.5,72.5C 156.328,73.4916 156.662,74.1583 157.5,74.5C 157.427,76.0269 158.094,77.0269 159.5,77.5C 159.833,78.8333 160.167,80.1667 160.5,81.5C 156.955,79.0751 154.955,75.7417 154.5,71.5 Z"/></g>
<g><path style="opacity:1" fill="#000000" d="M 161.5,79.5 C 162.833,80.1667 162.833,80.1667 161.5,79.5 Z"/></g>
<g><path style="opacity:1" fill="#196ab0" d="M 125.5,80.5 C 125.5,80.1667 125.5,79.8333 125.5,79.5C 126.847,80.1712 128.014,80.1712 129,79.5C 129.662,81.8127 130.162,84.146 130.5,86.5C 128.833,84.5 127.167,82.5 125.5,80.5 Z"/></g>
<g><path style="opacity:1" fill="#000000" d="M 44.5,81.5 C 45.8333,82.1667 45.8333,82.1667 44.5,81.5 Z"/></g>
<g><path style="opacity:1" fill="#000000" d="M 162.5,81.5 C 163.833,82.1667 163.833,82.1667 162.5,81.5 Z"/></g>
<g><path style="opacity:1" fill="#000000" d="M 39.5,82.5 C 38.8333,83.1667 38.8333,83.1667 39.5,82.5 Z"/></g>
<g><path style="opacity:1" fill="#000000" d="M 42.5,82.5 C 43.525,82.8966 43.6917,83.5632 43,84.5C 42.5357,83.9056 42.369,83.2389 42.5,82.5 Z"/></g>
<g><path style="opacity:1" fill="#000000" d="M 164.5,84.5 C 165.833,85.1667 165.833,85.1667 164.5,84.5 Z"/></g>
<g><path style="opacity:1" fill="#000000" d="M 166.5,87.5 C 167.833,88.1667 167.833,88.1667 166.5,87.5 Z"/></g>
<g><path style="opacity:1" fill="#000000" d="M 25.5,90.5 C 26.8333,91.1667 26.8333,91.1667 25.5,90.5 Z"/></g>
<g><path style="opacity:1" fill="#000000" d="M 38.5,91.5 C 37.8333,90.1667 37.8333,90.1667 38.5,91.5 Z"/></g>
<g><path style="opacity:1" fill="#000000" d="M 169.5,92.5 C 169.167,92.5 168.833,92.5 168.5,92.5C 168.833,89.8333 169.167,89.8333 169.5,92.5 Z"/></g>
<g><path style="opacity:1" fill="#000000" d="M 38.5,91.5 C 39.8333,92.1667 39.8333,92.1667 38.5,91.5 Z"/></g>
<g><path style="opacity:1" fill="#116fbc" d="M 27.5,92.5 C 31.0326,91.2854 34.6992,91.2854 38.5,92.5C 39.1667,93.5 39.8333,94.5 40.5,95.5C 36.4415,93.6195 32.1082,92.6195 27.5,92.5 Z"/></g>
<g><path style="opacity:1" fill="#000000" d="M 41.5,93.5 C 40.8333,92.1667 40.8333,92.1667 41.5,93.5 Z"/></g>
<g><path style="opacity:1" fill="#000000" d="M 169.5,92.5 C 170.167,92.5 170.5,92.8333 170.5,93.5C 170.167,93.1667 169.833,92.8333 169.5,92.5 Z"/></g>
<g><path style="opacity:1" fill="#0481f5" d="M 27.5,92.5 C 32.1082,92.6195 36.4415,93.6195 40.5,95.5C 41.5,96.1667 42.5,96.8333 43.5,97.5C 44.3833,100.704 46.0499,103.371 48.5,105.5C 49.3833,108.704 51.0499,111.371 53.5,113.5C 53.5412,115.745 54.3745,116.412 56,115.5C 55.3671,117.925 56.2005,119.925 58.5,121.5C 58.3284,122.492 58.6618,123.158 59.5,123.5C 59.427,125.027 60.0937,126.027 61.5,126.5C 61.427,128.027 62.0937,129.027 63.5,129.5C 63.3284,130.492 63.6618,131.158 64.5,131.5C 65.3403,133.853 66.6736,135.853 68.5,137.5C 68.7497,139.674 69.7497,141.341 71.5,142.5C 71.427,144.027 72.0937,145.027 73.5,145.5C 74.0787,148.331 75.412,150.664 77.5,152.5C 77.7107,154.424 78.3774,154.757 79.5,153.5C 83.0246,152.241 86.0246,150.241 88.5,147.5C 89.4916,147.672 90.1583,147.338 90.5,146.5C 92.0269,146.573 93.0269,145.906 93.5,144.5C 94.4916,144.672 95.1583,144.338 95.5,143.5C 96.4916,143.672 97.1583,143.338 97.5,142.5C 98.1667,142.5 98.5,142.167 98.5,141.5C 99.1667,141.5 99.5,141.167 99.5,140.5C 100.492,140.672 101.158,140.338 101.5,139.5C 102.609,139.443 103.609,139.11 104.5,138.5C 105.167,138.5 105.5,138.167 105.5,137.5C 106.5,137.167 107.167,136.5 107.5,135.5C 108.492,135.672 109.158,135.338 109.5,134.5C 111.483,133.529 113.483,132.529 115.5,131.5C 116.492,131.672 117.158,131.338 117.5,130.5C 117.5,130.167 117.5,129.833 117.5,129.5C 119.434,128.89 121.101,127.89 122.5,126.5C 123.167,126.5 123.5,126.167 123.5,125.5C 124.609,125.443 125.609,125.11 126.5,124.5C 127.206,125.557 127.539,125.224 127.5,123.5C 129.795,122.525 131.795,121.192 133.5,119.5C 134.492,119.672 135.158,119.338 135.5,118.5C 137.368,117.326 138.368,117.993 138.5,120.5C 138.966,122.201 138.966,123.701 138.5,125C 140.5,127.378 142.667,129.545 145,131.5C 145.333,132.5 145.667,133.5 146,134.5C 146.575,138.974 146.075,143.307 144.5,147.5C 144.5,148.167 144.5,148.833 144.5,149.5C 143.833,149.5 143.5,149.833 143.5,150.5C 142.508,150.328 141.842,150.662 141.5,151.5C 140.29,151.932 139.29,152.599 138.5,153.5C 137.833,153.5 137.5,153.833 137.5,154.5C 136.508,154.328 135.842,154.662 135.5,155.5C 134.833,155.5 134.5,155.833 134.5,156.5C 133.508,156.328 132.842,156.662 132.5,157.5C 131.833,157.5 131.5,157.833 131.5,158.5C 130.508,158.328 129.842,158.662 129.5,159.5C 128.508,159.328 127.842,159.662 127.5,160.5C 126.833,160.5 126.5,160.833 126.5,161.5C 125.508,161.328 124.842,161.662 124.5,162.5C 124.167,162.5 123.833,162.5 123.5,162.5C 118.791,161.725 115.291,163.391 113,167.5C 112.667,166.833 112.333,166.167 112,165.5C 111.51,166.793 111.343,168.127 111.5,169.5C 110.694,170.728 109.694,171.728 108.5,172.5C 107.833,172.5 107.5,172.833 107.5,173.5C 105.326,173.75 103.659,174.75 102.5,176.5C 101.833,176.5 101.167,176.5 100.5,176.5C 97.4124,176.197 95.7458,177.53 95.5,180.5C 94.1667,181.167 92.8333,181.833 91.5,182.5C 86.996,184.038 82.3293,185.038 77.5,185.5C 75.1667,185.333 72.8333,185.167 70.5,185C 67.3989,182.79 64.0655,180.957 60.5,179.5C 58.4727,178.139 56.806,176.473 55.5,174.5C 55.5,173.833 55.5,173.167 55.5,172.5C 54.7437,170.387 54.5771,168.387 55,166.5C 54.3333,167.833 53.6667,167.833 53,166.5C 50.0233,162.672 47.8567,158.839 46.5,155C 45.4734,154.487 44.4734,153.987 43.5,153.5C 42.8333,153.167 42.1667,152.833 41.5,152.5C 40.3307,149.489 38.664,146.822 36.5,144.5C 36.6716,143.508 36.3382,142.842 35.5,142.5C 34.6493,140.118 33.316,138.118 31.5,136.5C 31.6716,135.508 31.3382,134.842 30.5,134.5C 29.3307,131.489 27.664,128.822 25.5,126.5C 25.0679,125.29 24.4013,124.29 23.5,123.5C 21.8333,120.167 20.1667,116.833 18.5,113.5C 17.8027,108.38 18.8027,103.714 21.5,99.5C 22.4776,99.9767 23.3109,100.643 24,101.5C 24.8333,100 26,98.8333 27.5,98C 26.4178,96.6703 25.7512,95.1703 25.5,93.5C 25.8417,92.6618 26.5084,92.3284 27.5,92.5 Z M 135.5,118.5 C 135.158,119.338 134.492,119.672 133.5,119.5C 132.761,119.631 132.094,119.464 131.5,119C 132.946,117.702 134.279,117.535 135.5,118.5 Z M 123.5,125.5 C 123.5,126.167 123.167,126.5 122.5,126.5C 120.169,126.141 120.335,125.474 123,124.5C 123.399,124.728 123.565,125.062 123.5,125.5 Z M 109.5,133.5 C 109.5,133.833 109.5,134.167 109.5,134.5C 109.158,135.338 108.492,135.672 107.5,135.5C 107.062,135.565 106.728,135.399 106.5,135C 107.244,133.961 108.244,133.461 109.5,133.5 Z M 101.5,138.5 C 101.5,138.833 101.5,139.167 101.5,139.5C 101.158,140.338 100.492,140.672 99.5,140.5C 99.1667,140.5 98.8333,140.5 98.5,140.5C 98.9731,139.094 99.9731,138.427 101.5,138.5 Z M 95.5,143.5 C 95.1583,144.338 94.4916,144.672 93.5,144.5C 92.2617,144.19 92.2617,143.69 93.5,143C 94.4368,142.308 95.1034,142.475 95.5,143.5 Z M 90.5,145.5 C 90.5,145.833 90.5,146.167 90.5,146.5C 90.1583,147.338 89.4916,147.672 88.5,147.5C 88.0618,147.565 87.7284,147.399 87.5,147C 88.2438,145.961 89.2438,145.461 90.5,145.5 Z M 79.5,153.5 C 78.3774,154.757 77.7107,154.424 77.5,152.5C 78.0623,150.335 78.729,150.668 79.5,153.5 Z"/></g>
<g><path style="opacity:1" fill="#000000" d="M 41.5,93.5 C 42.1667,93.5 42.5,93.8333 42.5,94.5C 42.1667,94.1667 41.8333,93.8333 41.5,93.5 Z"/></g>
<g><path style="opacity:1" fill="#000000" d="M 133.5,93.5 C 132.833,94.1667 132.833,94.1667 133.5,93.5 Z"/></g>
<g><path style="opacity:1" fill="#000000" d="M 170.5,93.5 C 171.833,94.1667 171.833,94.1667 170.5,93.5 Z"/></g>
<g><path style="opacity:1" fill="#000000" d="M 42.5,94.5 C 43.8333,95.1667 43.8333,95.1667 42.5,94.5 Z"/></g>
<g><path style="opacity:1" fill="#157ddb" d="M 25.5,93.5 C 25.7512,95.1703 26.4178,96.6703 27.5,98C 26,98.8333 24.8333,100 24,101.5C 23.3109,100.643 22.4776,99.9767 21.5,99.5C 18.8027,103.714 17.8027,108.38 18.5,113.5C 18.1667,113.5 17.8333,113.5 17.5,113.5C 17.5,109.833 17.5,106.167 17.5,102.5C 19.0023,98.5159 21.669,95.5159 25.5,93.5 Z"/></g>
<g><path style="opacity:1" fill="#000000" d="M 171.5,95.5 C 172.833,96.1667 172.833,96.1667 171.5,95.5 Z"/></g>
<g><path style="opacity:1" fill="#000000" d="M 44.5,97.5 C 43.8333,96.1667 43.8333,96.1667 44.5,97.5 Z"/></g>
<g><path style="opacity:1" fill="#000000" d="M 134.5,96.5 C 135.833,97.1667 135.833,97.1667 134.5,96.5 Z"/></g>
<g><path style="opacity:1" fill="#000000" d="M 44.5,97.5 C 45.8333,98.1667 45.8333,98.1667 44.5,97.5 Z"/></g>
<g><path style="opacity:1" fill="#000000" d="M 172.5,97.5 C 173.833,98.1667 173.833,98.1667 172.5,97.5 Z"/></g>
<g><path style="opacity:1" fill="#000000" d="M 45.5,99.5 C 46.8333,100.167 46.8333,100.167 45.5,99.5 Z"/></g>
<g><path style="opacity:1" fill="#000000" d="M 173.5,99.5 C 174.833,100.167 174.833,100.167 173.5,99.5 Z"/></g>
<g><path style="opacity:1" fill="#000000" d="M 17.5,102.5 C 16.475,102.103 16.3083,101.437 17,100.5C 17.4643,101.094 17.631,101.761 17.5,102.5 Z"/></g>
<g><path style="opacity:1" fill="#000000" d="M 137.5,101.5 C 138.833,102.167 138.833,102.167 137.5,101.5 Z"/></g>
<g><path style="opacity:1" fill="#000000" d="M 174.5,101.5 C 175.833,102.167 175.833,102.167 174.5,101.5 Z"/></g>
<g><path style="opacity:1" fill="#000000" d="M 48.5,104.5 C 49.8333,105.167 49.8333,105.167 48.5,104.5 Z"/></g>
<g><path style="opacity:1" fill="#000000" d="M 141.5,105.5 C 140.833,106.167 140.833,106.167 141.5,105.5 Z"/></g>
<g><path style="opacity:1" fill="#000000" d="M 142.5,107.5 C 141.833,108.167 141.833,108.167 142.5,107.5 Z"/></g>
<g><path style="opacity:1" fill="#000000" d="M 143.5,110.5 C 142.833,109.167 142.833,109.167 143.5,110.5 Z"/></g>
<g><path style="opacity:1" fill="#000000" d="M 143.5,110.5 C 143.833,110.5 144.167,110.5 144.5,110.5C 144.315,111.17 143.981,111.17 143.5,110.5 Z"/></g>
<g><path style="opacity:1" fill="#000000" d="M 53.5,112.5 C 54.8333,113.167 54.8333,113.167 53.5,112.5 Z"/></g>
<g><path style="opacity:1" fill="#000000" d="M 145.5,113.5 C 144.833,112.167 144.833,112.167 145.5,113.5 Z"/></g>
<g><path style="opacity:1" fill="#1c5c9c" d="M 173.5,103.5 C 174.59,106.681 174.59,110.015 173.5,113.5C 172.662,113.842 172.328,114.508 172.5,115.5C 171.833,115.5 171.5,115.833 171.5,116.5C 170.833,116.5 170.5,116.833 170.5,117.5C 169.833,117.5 169.5,117.833 169.5,118.5C 169.167,118.5 168.833,118.5 168.5,118.5C 169.055,115.075 170.555,112.075 173,109.5C 173.495,107.527 173.662,105.527 173.5,103.5 Z"/></g>
<g><path style="opacity:1" fill="#000000" d="M 17.5,113.5 C 17.631,114.239 17.4643,114.906 17,115.5C 16.3083,114.563 16.475,113.897 17.5,113.5 Z"/></g>
<g><path style="opacity:1" fill="#000000" d="M 145.5,113.5 C 145.833,113.5 146.167,113.5 146.5,113.5C 146.315,114.17 145.981,114.17 145.5,113.5 Z"/></g>
<g><path style="opacity:1" fill="#000000" d="M 173.5,113.5 C 174.833,114.167 174.833,114.167 173.5,113.5 Z"/></g>
<g><path style="opacity:1" fill="#000000" d="M 147.5,115.5 C 146.833,116.167 146.833,116.167 147.5,115.5 Z"/></g>
<g><path style="opacity:1" fill="#000000" d="M 172.5,115.5 C 173.833,116.167 173.833,116.167 172.5,115.5 Z"/></g>
<g><path style="opacity:1" fill="#000000" d="M 17.5,116.5 C 18.8333,117.167 18.8333,117.167 17.5,116.5 Z"/></g>
<g><path style="opacity:1" fill="#000000" d="M 171.5,116.5 C 171.833,116.5 172.167,116.5 172.5,116.5C 172.315,117.17 171.981,117.17 171.5,116.5 Z"/></g>
<g><path style="opacity:1" fill="#000000" d="M 149.5,117.5 C 149.489,120.001 148.822,120.168 147.5,118C 148.094,117.536 148.761,117.369 149.5,117.5 Z"/></g>
<g><path style="opacity:1" fill="#000000" d="M 170.5,117.5 C 170.833,117.5 171.167,117.5 171.5,117.5C 171.315,118.17 170.981,118.17 170.5,117.5 Z"/></g>
<g><path style="opacity:1" fill="#000000" d="M 169.5,118.5 C 169.833,118.5 170.167,118.5 170.5,118.5C 170.315,119.17 169.981,119.17 169.5,118.5 Z"/></g>
<g><path style="opacity:1" fill="#000000" d="M 168.5,119.5 C 168.833,119.5 169.167,119.5 169.5,119.5C 169.315,120.17 168.981,120.17 168.5,119.5 Z"/></g>
<g><path style="opacity:1" fill="#000000" d="M 58.5,120.5 C 59.8333,121.167 59.8333,121.167 58.5,120.5 Z"/></g>
<g><path style="opacity:1" fill="#000000" d="M 152.5,120.5 C 151.833,121.167 151.833,121.167 152.5,120.5 Z"/></g>
<g><path style="opacity:1" fill="#125fa0" d="M 168.5,118.5 C 168.5,118.833 168.5,119.167 168.5,119.5C 167.508,119.328 166.842,119.662 166.5,120.5C 162.367,121.726 158.367,121.726 154.5,120.5C 159.392,120.774 164.059,120.107 168.5,118.5 Z"/></g>
<g><path style="opacity:1" fill="#000000" d="M 166.5,120.5 C 167.167,120.5 167.833,120.5 168.5,120.5C 167.833,121.833 167.167,121.833 166.5,120.5 Z"/></g>
<g><path style="opacity:1" fill="#000000" d="M 22.5,123.5 C 21.8333,122.167 21.8333,122.167 22.5,123.5 Z"/></g>
<g><path style="opacity:1" fill="#000000" d="M 60.5,123.5 C 59.8333,122.167 59.8333,122.167 60.5,123.5 Z"/></g>
<g><path style="opacity:1" fill="#000000" d="M 22.5,123.5 C 22.8333,123.5 23.1667,123.5 23.5,123.5C 23.3147,124.17 22.9813,124.17 22.5,123.5 Z"/></g>
<g><path style="opacity:1" fill="#000000" d="M 60.5,123.5 C 61.8333,124.167 61.8333,124.167 60.5,123.5 Z"/></g>
<g><path style="opacity:1" fill="#204f6d" d="M 127.5,123.5 C 127.539,125.224 127.206,125.557 126.5,124.5C 125.105,123.352 125.272,122.352 127,121.5C 127.464,122.094 127.631,122.761 127.5,123.5 Z"/></g>
<g><path style="opacity:1" fill="#000000" d="M 143.5,126.5 C 143.369,125.761 143.536,125.094 144,124.5C 144.692,125.437 144.525,126.103 143.5,126.5 Z"/></g>
<g><path style="opacity:1" fill="#000000" d="M 62.5,126.5 C 61.8333,125.167 61.8333,125.167 62.5,126.5 Z"/></g>
<g><path style="opacity:1" fill="#000000" d="M 25.5,126.5 C 24.8333,127.167 24.8333,127.167 25.5,126.5 Z"/></g>
<g><path style="opacity:1" fill="#000000" d="M 62.5,126.5 C 63.8333,127.167 63.8333,127.167 62.5,126.5 Z"/></g>
<g><path style="opacity:1" fill="#000000" d="M 63.5,128.5 C 64.8333,129.167 64.8333,129.167 63.5,128.5 Z"/></g>
<g><path style="opacity:1" fill="#1469b5" d="M 138.5,120.5 C 140.167,122.5 141.833,124.5 143.5,126.5C 143.738,128.404 144.738,129.738 146.5,130.5C 146.328,131.492 146.662,132.158 147.5,132.5C 148.705,136.487 148.705,140.487 147.5,144.5C 146.728,145.694 145.728,146.694 144.5,147.5C 146.075,143.307 146.575,138.974 146,134.5C 145.667,133.5 145.333,132.5 145,131.5C 142.667,129.545 140.5,127.378 138.5,125C 138.966,123.701 138.966,122.201 138.5,120.5 Z"/></g>
<g><path style="opacity:1" fill="#000000" d="M 146.5,129.5 C 147.833,130.167 147.833,130.167 146.5,129.5 Z"/></g>
<g><path style="opacity:1" fill="#000000" d="M 65.5,131.5 C 64.8333,130.167 64.8333,130.167 65.5,131.5 Z"/></g>
<g><path style="opacity:1" fill="#000000" d="M 112.5,130.5 C 113.833,131.167 113.833,131.167 112.5,130.5 Z"/></g>
<g><path style="opacity:1" fill="#1b485d" d="M 117.5,129.5 C 116.167,129.833 116.167,130.167 117.5,130.5C 117.158,131.338 116.492,131.672 115.5,131.5C 115.281,130.325 115.614,129.325 116.5,128.5C 117.107,128.624 117.44,128.957 117.5,129.5 Z"/></g>
<g><path style="opacity:1" fill="#000000" d="M 65.5,131.5 C 66.8333,132.167 66.8333,132.167 65.5,131.5 Z"/></g>
<g><path style="opacity:1" fill="#000000" d="M 110.5,131.5 C 111.833,132.167 111.833,132.167 110.5,131.5 Z"/></g>
<g><path style="opacity:1" fill="#000000" d="M 147.5,131.5 C 148.833,132.167 148.833,132.167 147.5,131.5 Z"/></g>
<g><path style="opacity:1" fill="#000000" d="M 110.5,132.5 C 109.833,133.167 109.833,133.167 110.5,132.5 Z"/></g>
<g><path style="opacity:1" fill="#000000" d="M 30.5,134.5 C 29.8333,135.167 29.8333,135.167 30.5,134.5 Z"/></g>
<g><path style="opacity:1" fill="#000000" d="M 105.5,137.5 C 105.5,138.167 105.167,138.5 104.5,138.5C 103.105,137.352 103.272,136.352 105,135.5C 105.464,136.094 105.631,136.761 105.5,137.5 Z"/></g>
<g><path style="opacity:1" fill="#000000" d="M 31.5,136.5 C 30.8333,137.167 30.8333,137.167 31.5,136.5 Z"/></g>
<g><path style="opacity:1" fill="#000000" d="M 68.5,136.5 C 69.8333,137.167 69.8333,137.167 68.5,136.5 Z"/></g>
<g><path style="opacity:1" fill="#000000" d="M 101.5,137.5 C 102.833,138.167 102.833,138.167 101.5,137.5 Z"/></g>
<g><path style="opacity:1" fill="#000000" d="M 31.5,138.5 C 32.8333,139.167 32.8333,139.167 31.5,138.5 Z"/></g>
<g><path style="opacity:1" fill="#000000" d="M 70.5,139.5 C 71.8333,140.167 71.8333,140.167 70.5,139.5 Z"/></g>
<g><path style="opacity:1" fill="#000000" d="M 32.5,140.5 C 33.8333,141.167 33.8333,141.167 32.5,140.5 Z"/></g>
<g><path style="opacity:1" fill="#000000" d="M 98.5,140.5 C 98.5,140.833 98.5,141.167 98.5,141.5C 97.8333,141.5 97.5,141.833 97.5,142.5C 96.2426,141.377 96.5759,140.711 98.5,140.5 Z"/></g>
<g><path style="opacity:1" fill="#000000" d="M 72.5,142.5 C 71.8333,141.167 71.8333,141.167 72.5,142.5 Z"/></g>
<g><path style="opacity:1" fill="#000000" d="M 35.5,142.5 C 34.8333,143.167 34.8333,143.167 35.5,142.5 Z"/></g>
<g><path style="opacity:1" fill="#000000" d="M 72.5,142.5 C 73.8333,143.167 73.8333,143.167 72.5,142.5 Z"/></g>
<g><path style="opacity:1" fill="#000000" d="M 36.5,144.5 C 35.8333,145.167 35.8333,145.167 36.5,144.5 Z"/></g>
<g><path style="opacity:1" fill="#000000" d="M 73.5,144.5 C 74.8333,145.167 74.8333,145.167 73.5,144.5 Z"/></g>
<g><path style="opacity:1" fill="#000000" d="M 90.5,144.5 C 91.8333,145.167 91.8333,145.167 90.5,144.5 Z"/></g>
<g><path style="opacity:1" fill="#000000" d="M 147.5,144.5 C 148.833,145.167 148.833,145.167 147.5,144.5 Z"/></g>
<g><path style="opacity:1" fill="#000000" d="M 75.5,147.5 C 76.8333,148.167 76.8333,148.167 75.5,147.5 Z"/></g>
<g><path style="opacity:1" fill="#000000" d="M 145.5,148.5 C 146.833,149.167 146.833,149.167 145.5,148.5 Z"/></g>
<g><path style="opacity:1" fill="#000000" d="M 144.5,149.5 C 144.833,149.5 145.167,149.5 145.5,149.5C 145.315,150.17 144.981,150.17 144.5,149.5 Z"/></g>
<g><path style="opacity:1" fill="#000000" d="M 143.5,150.5 C 143.833,150.5 144.167,150.5 144.5,150.5C 144.315,151.17 143.981,151.17 143.5,150.5 Z"/></g>
<g><path style="opacity:1" fill="#000000" d="M 40.5,152.5 C 39.8333,151.167 39.8333,151.167 40.5,152.5 Z"/></g>
<g><path style="opacity:1" fill="#000000" d="M 141.5,151.5 C 142.167,151.5 142.833,151.5 143.5,151.5C 142.452,153.933 141.786,153.933 141.5,151.5 Z"/></g>
<g><path style="opacity:1" fill="#000000" d="M 40.5,152.5 C 40.8333,152.5 41.1667,152.5 41.5,152.5C 41.3147,153.17 40.9813,153.17 40.5,152.5 Z"/></g>
<g><path style="opacity:1" fill="#000000" d="M 138.5,154.5 C 138.5,154.167 138.5,153.833 138.5,153.5C 141.167,153.833 141.167,154.167 138.5,154.5 Z"/></g>
<g><path style="opacity:1" fill="#000000" d="M 42.5,155.5 C 41.8333,154.167 41.8333,154.167 42.5,155.5 Z"/></g>
<g><path style="opacity:1" fill="#000000" d="M 137.5,154.5 C 137.833,154.5 138.167,154.5 138.5,154.5C 138.315,155.17 137.981,155.17 137.5,154.5 Z"/></g>
<g><path style="opacity:1" fill="#000000" d="M 42.5,155.5 C 42.8333,155.5 43.1667,155.5 43.5,155.5C 43.3147,156.17 42.9813,156.17 42.5,155.5 Z"/></g>
<g><path style="opacity:1" fill="#000000" d="M 135.5,156.5 C 135.5,156.167 135.5,155.833 135.5,155.5C 136.167,155.5 136.833,155.5 137.5,155.5C 137.158,156.338 136.492,156.672 135.5,156.5 Z"/></g>
<g><path style="opacity:1" fill="#000000" d="M 134.5,156.5 C 134.833,156.5 135.167,156.5 135.5,156.5C 135.315,157.17 134.981,157.17 134.5,156.5 Z"/></g>
<g><path style="opacity:1" fill="#000000" d="M 44.5,157.5 C 43.8333,158.167 43.8333,158.167 44.5,157.5 Z"/></g>
<g><path style="opacity:1" fill="#000000" d="M 132.5,158.5 C 132.5,158.167 132.5,157.833 132.5,157.5C 133.167,157.5 133.833,157.5 134.5,157.5C 134.158,158.338 133.492,158.672 132.5,158.5 Z"/></g>
<g><path style="opacity:1" fill="#000000" d="M 131.5,158.5 C 131.833,158.5 132.167,158.5 132.5,158.5C 132.315,159.17 131.981,159.17 131.5,158.5 Z"/></g>
<g><path style="opacity:1" fill="#000000" d="M 45.5,160.5 C 44.8333,159.167 44.8333,159.167 45.5,160.5 Z"/></g>
<g><path style="opacity:1" fill="#000000" d="M 129.5,159.5 C 130.833,160.167 130.833,160.167 129.5,159.5 Z"/></g>
<g><path style="opacity:1" fill="#000000" d="M 45.5,160.5 C 45.8333,160.5 46.1667,160.5 46.5,160.5C 46.3147,161.17 45.9813,161.17 45.5,160.5 Z"/></g>
<g><path style="opacity:1" fill="#000000" d="M 127.5,161.5 C 127.5,161.167 127.5,160.833 127.5,160.5C 128.167,160.5 128.833,160.5 129.5,160.5C 129.158,161.338 128.492,161.672 127.5,161.5 Z"/></g>
<g><path style="opacity:1" fill="#000000" d="M 126.5,161.5 C 126.833,161.5 127.167,161.5 127.5,161.5C 127.315,162.17 126.981,162.17 126.5,161.5 Z"/></g>
<g><path style="opacity:1" fill="#000000" d="M 47.5,163.5 C 46.8333,162.167 46.8333,162.167 47.5,163.5 Z"/></g>
<g><path style="opacity:1" fill="#000000" d="M 124.5,162.5 C 125.833,163.167 125.833,163.167 124.5,162.5 Z"/></g>
<g><path style="opacity:1" fill="#000000" d="M 47.5,163.5 C 47.8333,163.5 48.1667,163.5 48.5,163.5C 48.3147,164.17 47.9813,164.17 47.5,163.5 Z"/></g>
<g><path style="opacity:1" fill="#000000" d="M 123.5,163.5 C 123.833,163.5 124.167,163.5 124.5,163.5C 124.315,164.17 123.981,164.17 123.5,163.5 Z"/></g>
<g><path style="opacity:1" fill="#000000" d="M 121.5,165.5 C 121.5,165.167 121.5,164.833 121.5,164.5C 122.167,164.5 122.833,164.5 123.5,164.5C 123.158,165.338 122.492,165.672 121.5,165.5 Z"/></g>
<g><path style="opacity:1" fill="#1a6fc1" d="M 123.5,162.5 C 123.5,162.833 123.5,163.167 123.5,163.5C 122.508,163.328 121.842,163.662 121.5,164.5C 120.508,164.328 119.842,164.662 119.5,165.5C 118.833,165.5 118.5,165.833 118.5,166.5C 116.973,166.427 115.973,167.094 115.5,168.5C 114.167,168.833 112.833,169.167 111.5,169.5C 111.343,168.127 111.51,166.793 112,165.5C 112.333,166.167 112.667,166.833 113,167.5C 115.291,163.391 118.791,161.725 123.5,162.5 Z"/></g>
<g><path style="opacity:1" fill="#000000" d="M 119.5,166.5 C 119.5,166.167 119.5,165.833 119.5,165.5C 120.167,165.5 120.833,165.5 121.5,165.5C 121.158,166.338 120.492,166.672 119.5,166.5 Z"/></g>
<g><path style="opacity:1" fill="#000000" d="M 50.5,166.5 C 49.8333,167.167 49.8333,167.167 50.5,166.5 Z"/></g>
<g><path style="opacity:1" fill="#000000" d="M 118.5,166.5 C 118.833,166.5 119.167,166.5 119.5,166.5C 119.315,167.17 118.981,167.17 118.5,166.5 Z"/></g>
<g><path style="opacity:1" fill="#1572c7" d="M 43.5,153.5 C 44.4734,153.987 45.4734,154.487 46.5,155C 47.8567,158.839 50.0233,162.672 53,166.5C 53.6667,167.833 54.3333,167.833 55,166.5C 54.5771,168.387 54.7437,170.387 55.5,172.5C 54.8333,172.167 54.1667,171.833 53.5,171.5C 53.573,169.973 52.9063,168.973 51.5,168.5C 51.6716,167.508 51.3382,166.842 50.5,166.5C 50.0679,165.29 49.4013,164.29 48.5,163.5C 48.573,161.973 47.9063,160.973 46.5,160.5C 46.573,158.973 45.9063,157.973 44.5,157.5C 44.6716,156.508 44.3382,155.842 43.5,155.5C 43.5,154.833 43.5,154.167 43.5,153.5 Z"/></g>
<g><path style="opacity:1" fill="#000000" d="M 118.5,167.5 C 117.833,168.167 117.833,168.167 118.5,167.5 Z"/></g>
<g><path style="opacity:1" fill="#000000" d="M 51.5,168.5 C 50.8333,169.167 50.8333,169.167 51.5,168.5 Z"/></g>
<g><path style="opacity:1" fill="#000000" d="M 115.5,168.5 C 116.833,169.167 116.833,169.167 115.5,168.5 Z"/></g>
<g><path style="opacity:1" fill="#000000" d="M 52.5,171.5 C 51.8333,170.167 51.8333,170.167 52.5,171.5 Z"/></g>
<g><path style="opacity:1" fill="#000000" d="M 52.5,171.5 C 52.8333,171.5 53.1667,171.5 53.5,171.5C 53.3147,172.17 52.9813,172.17 52.5,171.5 Z"/></g>
<g><path style="opacity:1" fill="#000000" d="M 108.5,173.5 C 108.5,173.167 108.5,172.833 108.5,172.5C 111.167,172.833 111.167,173.167 108.5,173.5 Z"/></g>
<g><path style="opacity:1" fill="#000000" d="M 54.5,174.5 C 53.8333,173.167 53.8333,173.167 54.5,174.5 Z"/></g>
<g><path style="opacity:1" fill="#000000" d="M 107.5,173.5 C 107.833,173.5 108.167,173.5 108.5,173.5C 108.315,174.17 107.981,174.17 107.5,173.5 Z"/></g>
<g><path style="opacity:1" fill="#000000" d="M 54.5,174.5 C 54.8333,174.5 55.1667,174.5 55.5,174.5C 55.3147,175.17 54.9813,175.17 54.5,174.5 Z"/></g>
<g><path style="opacity:1" fill="#000000" d="M 107.5,174.5 C 106.833,175.167 106.833,175.167 107.5,174.5 Z"/></g>
<g><path style="opacity:1" fill="#000000" d="M 104.5,175.5 C 105.833,176.167 105.833,176.167 104.5,175.5 Z"/></g>
<g><path style="opacity:1" fill="#1b548a" d="M 100.5,176.5 C 99.4019,177.397 99.4019,178.23 100.5,179C 99.9056,179.464 99.2389,179.631 98.5,179.5C 98.1667,178.167 97.8333,178.167 97.5,179.5C 96.8333,179.5 96.5,179.833 96.5,180.5C 96.1667,180.5 95.8333,180.5 95.5,180.5C 95.7458,177.53 97.4124,176.197 100.5,176.5 Z"/></g>
<g><path style="opacity:1" fill="#000000" d="M 102.5,177.5 C 102.5,177.167 102.5,176.833 102.5,176.5C 103.167,176.5 103.833,176.5 104.5,176.5C 104.158,177.338 103.492,177.672 102.5,177.5 Z"/></g>
<g><path style="opacity:1" fill="#000000" d="M 102.5,177.5 C 101.833,178.167 101.833,178.167 102.5,177.5 Z"/></g>
<g><path style="opacity:1" fill="#000000" d="M 97.5,179.5 C 97.8333,179.5 98.1667,179.5 98.5,179.5C 98.3147,180.17 97.9813,180.17 97.5,179.5 Z"/></g>
<g><path style="opacity:1" fill="#000000" d="M 96.5,180.5 C 96.8333,180.5 97.1667,180.5 97.5,180.5C 97.3147,181.17 96.9813,181.17 96.5,180.5 Z"/></g>
<g><path style="opacity:1" fill="#000000" d="M 96.5,181.5 C 95.8333,182.167 95.8333,182.167 96.5,181.5 Z"/></g>
<g><path style="opacity:1" fill="#000000" d="M 93.5,182.5 C 94.8333,183.167 94.8333,183.167 93.5,182.5 Z"/></g>
<g><path style="opacity:1" fill="#000000" d="M 93.5,183.5 C 92.8333,184.167 92.8333,184.167 93.5,183.5 Z"/></g>
<g><path style="opacity:1" fill="#000000" d="M 64.5,184.5 C 63.8333,185.167 63.8333,185.167 64.5,184.5 Z"/></g>
<g><path style="opacity:1" fill="#000000" d="M 89.5,185.5 C 89.5,185.167 89.5,184.833 89.5,184.5C 92.1667,184.833 92.1667,185.167 89.5,185.5 Z"/></g>
<g><path style="opacity:1" fill="#000000" d="M 66.5,185.5 C 65.8333,186.167 65.8333,186.167 66.5,185.5 Z"/></g>
<g><path style="opacity:1" fill="#186bbb" d="M 60.5,179.5 C 64.0655,180.957 67.3989,182.79 70.5,185C 72.8333,185.167 75.1667,185.333 77.5,185.5C 82.3293,185.038 86.996,184.038 91.5,182.5C 90.8333,183.167 90.1667,183.833 89.5,184.5C 88.5084,184.328 87.8417,184.662 87.5,185.5C 80.5139,188.113 73.5139,188.113 66.5,185.5C 66.1583,184.662 65.4916,184.328 64.5,184.5C 63.1667,182.833 61.8333,181.167 60.5,179.5 Z"/></g>
<g><path style="opacity:1" fill="#000000" d="M 87.5,185.5 C 88.1667,185.5 88.8333,185.5 89.5,185.5C 88.8333,186.833 88.1667,186.833 87.5,185.5 Z"/></g>
</svg>
